<svg id="Layer_1" data-name="Layer 1" xmlns="http://www.w3.org/2000/svg" viewBox="0 0 1080 1080"><defs><style>.cls-1{fill:#fff;}</style></defs><title>PAPI logo</title><path d="M858.36,444.51V455.9q0,30.15-17.29,53.46A155.26,155.26,0,0,1,797,549a322.84,322.84,0,0,1-50.48,25.6C730.68,580.81,708.48,589,680,599v69.64c0,6.13,1.26,10.56,3.88,13.41s7.08,4.71,13.37,5.66V702H619.94v0h12.7V687.72a11,11,0,0,1-5.15-1.9c-.07,0-.11-.12-.19-.16a13.87,13.87,0,0,0,5.14-3.68c2.45-2.85,3.72-7.32,3.72-13.33V630.51a102.18,102.18,0,0,0,62.91-72.13c3.92-1.51,8-3.13,12.34-4.83,12.11-4.67,23.23-9.53,33.16-14.36a234.2,234.2,0,0,0,28.6-16.54,145.48,145.48,0,0,0,24.18-20.89q15.25-15.31,15.27-42.93c0-9.3-1-17.33-3-23.94-3.56-9.61-10-17.48-19.3-23.74a72.91,72.91,0,0,0-31.14-11.55c-20.38-1.18-36.24-1.82-47.64-1.82H680v74.38a101.72,101.72,0,0,0-43.88-32.44v-38.1c0-6.05-1.11-10.37-3.4-13s-6.29-4.59-11.87-6.13V368.23H741.17q42.32,0,66.66,10.48A91.64,91.64,0,0,1,842,405.5,76.42,76.42,0,0,1,858.36,444.51Z"/><path d="M172,565.72q13.13-5,31.4-12.16c12.08-4.69,23.2-9.54,33.14-14.39a231.68,231.68,0,0,0,28.61-16.53,143.15,143.15,0,0,0,24.16-20.9q15.25-15.25,15.26-42.91c0-9.3-.95-17.33-2.94-23.92-3.58-9.62-10-17.49-19.31-23.77a72.52,72.52,0,0,0-31.16-11.52c-20.35-1.19-36.24-1.83-47.6-1.83H172V565.72ZM111.87,702V687.71c5.88-1,10-2.86,12.48-5.72s3.73-7.31,3.73-13.35v-267c0-6-1.11-10.33-3.42-13s-6.27-4.61-11.84-6.12v-14.3H233.07q42.32,0,66.68,10.48a91.42,91.42,0,0,1,34.17,26.79,76.46,76.46,0,0,1,16.37,39v11.37q0,30.15-17.32,53.48A155.17,155.17,0,0,1,288.86,549a320.93,320.93,0,0,1-50.47,25.59c-15.81,6.2-38,14.39-66.44,24.4v69.62c0,6.12,1.28,10.57,3.9,13.43s7.07,4.69,13.35,5.65V702Z"/><path d="M532.14,458.32a101.84,101.84,0,0,0-26.94,37.43l-30.86-76L429.51,537l-12.38,30.55L377.05,671.5a9.74,9.74,0,0,1-.95,2.29,9.68,9.68,0,0,0-1,2.49c0,2.77,1.5,5.23,4.39,7.36a21.82,21.82,0,0,0,10,4.08V702H327.47V687.72c7.72-2.06,13.41-8.75,17.25-20L464.8,368.23h30.51Z"/><path class="cls-1" d="M632.64,687.72V702h-12.7V687.72a31,31,0,0,0,7.36-2.06c.08,0,.12.12.19.16A11,11,0,0,0,632.64,687.72Z"/><path d="M627.3,685.66a31,31,0,0,1-7.36,2.06V702H564V687.72c7.64-1.27,11.36-4.16,11.36-8.67,0-3.16-.24-5.34-.87-6.61l-17.89-44.59a101.24,101.24,0,0,0,43,9.46c1.9,0,3.8,0,5.7-.16l14,34.35c.4,1.1,1.11,2.69,1.9,4.78a39.87,39.87,0,0,0,2.69,5.54A14.27,14.27,0,0,0,627.3,685.66Z"/><path d="M632.64,687.72V702h-12.7V687.72a31,31,0,0,0,7.36-2.06c.08,0,.12.12.19.16A11,11,0,0,0,632.64,687.72Z"/><path d="M879.88,702V687.71c6-1.51,10.1-3.41,12.17-5.8s3.1-6.83,3.1-13.27v-267c0-6-1.12-10.34-3.42-13s-6.28-4.61-11.85-6.12v-14.3h77.17v14.3c-6.91,1.51-11.44,3.42-13.74,5.73S940,395,940,401.61v267c0,6.6,1.19,11.13,3.5,13.75s6.83,4.37,13.58,5.32V702Z"/><polygon points="36.67 298.14 133.32 298.14 133.32 324.59 36.67 324.59 36.67 298.14"/><polygon points="36.67 394.79 36.67 298.14 63.12 298.14 63.12 394.79 36.67 394.79"/><polygon points="1043.33 787.75 957.05 787.75 957.05 761.31 1043.33 761.31 1043.33 787.75"/><polygon points="1043.33 691.11 1043.33 787.75 1016.88 787.75 1016.88 691.11 1043.33 691.11"/><circle cx="918.47" cy="278.86" r="27.4"/><path d="M653.17,481.54l0,0a75.81,75.81,0,0,0-107.18,0c-1,1-2.06,2.14-3,3.25a75.57,75.57,0,0,0-18.75,58.87.12.12,0,0,0,0,.08,74.21,74.21,0,0,0,11.67,32.52v0A73.92,73.92,0,0,0,546,588.68l0,0a75.37,75.37,0,0,0,48.47,22c1.66.16,3.4.2,5.1.2a76.07,76.07,0,0,0,53.61-22.24,75.78,75.78,0,0,0,0-107.18Zm-15.39,91.83a19.07,19.07,0,0,1-1.62,1.51,53.67,53.67,0,0,1-36.6,14.32,54.05,54.05,0,0,1-38.26-15.79l0,0a54.1,54.1,0,0,1,74.9-78.06,21.78,21.78,0,0,1,1.66,1.54,54.2,54.2,0,0,1,0,76.52Z"/><circle cx="599.55" cy="535.12" r="28.73"/><path d="M159.35,760.77a43.16,43.16,0,0,0-12.61-7.62,38.67,38.67,0,0,0-14-2.55q-14.16,0-23.06,9.1t-8.89,23.58q0,14,8.65,23.09t21.83,9.1a39.63,39.63,0,0,0,14.62-2.73,46.25,46.25,0,0,0,13.31-8.2v15.89a41.08,41.08,0,0,1-12.34,6.09,49.69,49.69,0,0,1-14.46,2,50.52,50.52,0,0,1-18.33-3.25,43.23,43.23,0,0,1-24.53-24.2,47.58,47.58,0,0,1-3.39-17.93,47,47,0,0,1,3.39-17.87,44.33,44.33,0,0,1,24.6-24.35,48.65,48.65,0,0,1,18-3.28,47.12,47.12,0,0,1,14.52,2.22,51.18,51.18,0,0,1,13.42,6.73l-.77,14.16Z"/><path id="_1" data-name=" 1" d="M247,776.62h2.56q11.16,0,14.82-2.6T268,764.8c0-4.76-1.31-8.1-3.93-10.06s-7.48-2.93-14.56-2.93H247v24.81Zm-.85,10.89v38.73H232.93V739.71h19.6a62.08,62.08,0,0,1,13.39,1.13,19.79,19.79,0,0,1,14.32,11.82,26.59,26.59,0,0,1,2.18,10.87q0,10.38-5,16.28t-14.82,7.06l29.76,39.37H276.49l-28.8-38.73Z"/><polygon id="_2" data-name=" 2" points="356.83 826.24 356.83 739.71 405.11 739.71 405.11 751.69 370.87 751.69 370.87 773.36 405.11 773.36 405.11 785.7 370.87 785.7 370.87 813.65 405.11 813.65 405.11 826.24 356.83 826.24"/><path id="_3" data-name=" 3" d="M495.63,792.23h24.12l-8.87-19.72c-.5-1.25-1.05-2.71-1.59-4.34s-1.11-3.45-1.66-5.46c-.46,1.89-1,3.65-1.51,5.28s-1.07,3.15-1.61,4.52l-8.88,19.72Zm38.89,34L524.71,804H490.43l-10.05,22.27H465.62l41.89-89.92,41.85,89.92Z"/><polygon id="_4" data-name=" 4" points="634.96 751.69 634.96 826.24 620.92 826.24 620.92 751.69 597.93 751.69 597.93 739.71 657.83 739.71 657.83 751.69 634.96 751.69"/><polygon id="_5" data-name=" 5" points="724.72 826.24 724.72 739.71 773 739.71 773 751.69 738.75 751.69 738.75 773.36 773 773.36 773 785.7 738.75 785.7 738.75 813.65 773 813.65 773 826.24 724.72 826.24"/><path id="_6" data-name=" 6" d="M859.29,813.53h11.84c6.49,0,11.37-.42,14.62-1.29a21.48,21.48,0,0,0,8.49-4.38,25.93,25.93,0,0,0,7.36-10.44,44,44,0,0,0,0-29A25.93,25.93,0,0,0,894.24,758a21.9,21.9,0,0,0-8.77-4.38c-3.41-.87-8.76-1.29-16-1.29H859.29v61.23Zm-14,12.71V739.71h18.94q18.51,0,26,1.86a35.54,35.54,0,0,1,13.21,6.23,36.3,36.3,0,0,1,11.38,14.73A51.39,51.39,0,0,1,918.7,783a50.72,50.72,0,0,1-3.87,20.41,36.88,36.88,0,0,1-11.38,14.7,35.71,35.71,0,0,1-12.93,6.23q-7.23,1.85-22.54,1.86H845.25Z"/></svg>